<?xml version="1.0" encoding="UTF-8"?>
<svg xmlns="http://www.w3.org/2000/svg" xmlns:xlink="http://www.w3.org/1999/xlink" width="224pt" height="105pt" viewBox="0 0 224 105" version="1.1">
<g id="surface1">
<path style=" stroke:none;fill-rule:nonzero;fill:rgb(100%,100%,100%);fill-opacity:1;" d="M 31.0625 6.074219 C 37.535156 1.589844 46.832031 1.78125 53.089844 6.570312 C 58.070312 10.203125 60.945312 16.414062 60.746094 22.5625 C 63.746094 23.21875 66.515625 25.671875 66.625 28.894531 C 66.65625 37.289062 66.628906 45.691406 66.628906 54.089844 C 66.746094 55.9375 65.65625 57.492188 64.625 58.90625 C 112.488281 58.8125 160.351562 58.890625 208.210938 58.875 C 215.375 58.804688 221.917969 64.847656 222.390625 72.027344 C 222.601562 77.378906 222.480469 82.746094 222.460938 88.105469 C 222.351562 95.3125 216.113281 101.835938 208.890625 101.984375 C 144.371094 101.96875 79.847656 101.984375 15.320312 101.96875 C 10.039062 101.71875 5.121094 98.136719 3.113281 93.238281 C 1.371094 89.203125 2.0625 84.703125 1.921875 80.4375 C 2.023438 75.550781 1.25 70.199219 4.042969 65.871094 C 6.925781 60.929688 12.777344 58.285156 18.390625 58.894531 C 17.304688 57.5 16.289062 55.902344 16.34375 54.058594 C 16.332031 45.710938 16.324219 37.367188 16.34375 29.03125 C 16.480469 25.613281 19.445312 22.9375 22.714844 22.523438 C 22.46875 16.089844 25.699219 9.625 31.0625 6.074219 M 28.238281 16.117188 C 26.671875 19.476562 27.179688 23.257812 27.121094 26.847656 C 24.957031 26.996094 21.457031 26.148438 20.722656 28.972656 C 20.503906 32.226562 20.714844 35.496094 20.636719 38.757812 C 20.59375 43.210938 20.636719 47.667969 20.597656 52.121094 C 20.527344 53.40625 20.8125 54.675781 21.246094 55.878906 C 22.257812 56.207031 23.289062 56.546875 24.375 56.515625 C 35.914062 56.496094 47.460938 56.5 59 56.507812 C 60.453125 56.605469 62.421875 55.761719 62.292969 54.042969 C 62.351562 46.117188 62.285156 38.183594 62.316406 30.257812 C 62.445312 28.992188 62.015625 27.644531 60.785156 27.097656 C 58.300781 26.640625 55.757812 26.886719 53.25 26.84375 C 53.296875 23.019531 53.539062 18.8125 51.207031 15.539062 C 49.082031 12.300781 45.324219 10.453125 41.507812 10.359375 C 41.480469 9.296875 41.46875 8.234375 41.449219 7.179688 C 35.808594 7.277344 30.359375 10.835938 28.238281 16.117188 M 15.53125 63.289062 C 11.6875 63.566406 8.148438 66.269531 6.90625 69.941406 C 5.816406 73.320312 6.40625 76.9375 6.265625 80.421875 C 6.40625 83.917969 5.824219 87.527344 6.875 90.917969 C 8.136719 94.746094 11.925781 97.640625 15.972656 97.609375 C 80.054688 97.601562 144.140625 97.601562 208.21875 97.609375 C 212.164062 97.742188 215.921875 95.078125 217.363281 91.425781 C 218.675781 87.917969 217.964844 84.097656 218.136719 80.441406 C 217.90625 76.355469 218.945312 71.847656 216.675781 68.171875 C 214.851562 65.007812 211.253906 63.097656 207.636719 63.230469 C 143.601562 63.28125 79.566406 63.167969 15.53125 63.289062 Z M 15.53125 63.289062 "/>
<path style=" stroke:none;fill-rule:nonzero;fill:rgb(100%,100%,100%);fill-opacity:1;" d="M 35.246094 16.726562 C 38.21875 12.808594 44.683594 12.449219 47.886719 16.277344 C 50.667969 19.078125 49.964844 23.285156 50.015625 26.859375 C 44.523438 26.855469 39.035156 26.855469 33.542969 26.859375 C 33.515625 23.457031 32.863281 19.550781 35.246094 16.726562 M 37.707031 22.511719 C 40.390625 22.519531 43.078125 22.53125 45.761719 22.5 C 45.714844 20.808594 45.082031 18.929688 43.351562 18.292969 C 40.601562 16.824219 37.367188 19.558594 37.707031 22.511719 Z M 37.707031 22.511719 "/>
<path style=" stroke:none;fill-rule:nonzero;fill:rgb(100%,100%,100%);fill-opacity:1;" d="M 70.109375 31.796875 C 73.214844 28.796875 78.007812 28.796875 81.898438 29.996094 C 82.769531 29.710938 83.652344 29.523438 84.5625 29.441406 C 93.738281 29.453125 102.921875 29.433594 112.101562 29.449219 C 114.3125 29.371094 116.050781 31.109375 116.683594 33.128906 L 115.800781 33.828125 C 116.632812 33.828125 116.960938 32.953125 117.472656 32.4375 C 119.957031 29.292969 124.476562 28.707031 128.152344 29.632812 C 130.261719 30.386719 132.367188 29.054688 134.535156 29.421875 C 137.78125 29.757812 141.628906 28.449219 144.300781 30.914062 C 148.066406 28.847656 152.582031 28.867188 156.613281 30.105469 C 159.335938 29.09375 162.625 28.996094 165.238281 30.394531 C 168.160156 28.605469 171.621094 29.878906 174.796875 29.503906 C 179.070312 29.332031 183.898438 28.996094 187.382812 31.984375 C 192.636719 27.503906 202.253906 28.367188 205.503906 34.878906 C 207.738281 39.59375 207.507812 45.777344 204.125 49.902344 C 200.710938 53.984375 194.550781 54.398438 189.875 52.488281 C 187.132812 53.871094 183.742188 53.710938 180.898438 52.707031 C 177.898438 53.703125 174.152344 54.058594 171.542969 51.921875 C 167.589844 54.140625 162.457031 54.199219 158.601562 51.742188 C 154.171875 53.933594 148.636719 54.339844 144.140625 52.09375 C 141.984375 53.929688 139.058594 53.3125 136.46875 53.402344 C 134.085938 53.328125 131.515625 53.792969 129.371094 52.488281 C 125.152344 54.171875 119.738281 54.09375 116.195312 50.996094 C 114.914062 53.054688 112.46875 53.683594 110.179688 53.414062 C 106.886719 53.117188 103.195312 54.238281 100.28125 52.210938 C 97.511719 53.960938 93.515625 53.992188 90.765625 52.179688 C 88.09375 53.984375 84.339844 53.820312 81.5 52.488281 C 77.667969 54.070312 73.0625 53.984375 69.429688 51.921875 C 67.257812 50.613281 67.347656 47.796875 67.445312 45.582031 C 67.40625 44.316406 67.996094 43.191406 68.582031 42.117188 C 67.117188 38.757812 67.347656 34.425781 70.109375 31.796875 M 73.914062 34.414062 C 71.710938 35.714844 71.429688 39.207031 73.324219 40.90625 C 74.8125 42.15625 76.765625 42.644531 78.265625 43.878906 C 78.816406 44.746094 78.574219 45.867188 77.535156 46.175781 C 75.601562 46.695312 73.695312 45.769531 71.902344 45.144531 C 71.910156 46.167969 71.921875 47.191406 71.929688 48.214844 C 74.445312 49.167969 77.496094 49.597656 79.898438 48.113281 C 82.226562 46.652344 82.335938 42.714844 79.914062 41.292969 C 78.414062 39.984375 75.566406 39.882812 75.132812 37.632812 C 76.132812 35.339844 78.878906 36.679688 80.609375 37.175781 C 80.9375 36.332031 81.265625 35.488281 81.597656 34.652344 C 79.195312 33.71875 76.273438 32.949219 73.914062 34.414062 M 89.855469 33.777344 C 89.855469 34.691406 89.863281 35.597656 89.863281 36.511719 C 91.195312 36.519531 92.527344 36.511719 93.867188 36.523438 C 93.875 40.648438 93.867188 44.773438 93.875 48.898438 C 94.9375 48.898438 96 48.898438 97.066406 48.898438 C 97.070312 44.773438 97.058594 40.648438 97.078125 36.523438 C 98.410156 36.511719 99.742188 36.519531 101.074219 36.511719 C 101.074219 35.597656 101.074219 34.691406 101.082031 33.777344 C 97.339844 33.785156 93.597656 33.785156 89.855469 33.777344 M 121.976562 34.296875 C 119.898438 35.390625 119.34375 38.382812 120.675781 40.261719 C 122.027344 42.089844 124.507812 42.417969 126.160156 43.886719 C 126.597656 44.695312 126.53125 45.867188 125.488281 46.128906 C 123.570312 46.773438 121.605469 45.75 119.816406 45.140625 C 119.816406 46.167969 119.808594 47.199219 119.808594 48.226562 C 122.234375 49.097656 125.066406 49.558594 127.441406 48.3125 C 130.050781 47.082031 130.375 42.847656 127.878906 41.324219 C 126.199219 39.992188 123.417969 39.773438 122.835938 37.375 C 124.386719 35.695312 126.621094 36.511719 128.453125 37.15625 C 128.804688 36.324219 129.171875 35.496094 129.53125 34.664062 C 127.160156 33.765625 124.351562 32.980469 121.976562 34.296875 M 145.921875 35.179688 C 142.734375 37.707031 142.703125 42.683594 144.375 46.085938 C 146.671875 49.984375 151.855469 49.308594 155.542969 48.273438 C 155.539062 45.640625 155.542969 43.003906 155.539062 40.371094 C 153.5625 40.371094 151.589844 40.371094 149.617188 40.371094 C 149.609375 41.28125 149.609375 42.1875 149.605469 43.101562 C 150.570312 43.101562 151.539062 43.105469 152.511719 43.113281 C 152.488281 44.15625 152.46875 45.199219 152.441406 46.246094 C 150.714844 46.355469 148.578125 46.574219 147.472656 44.914062 C 145.953125 42.449219 146.171875 38.472656 148.847656 36.886719 C 150.640625 35.816406 152.75 36.523438 154.578125 37.078125 C 154.910156 36.222656 155.25 35.359375 155.589844 34.503906 C 152.496094 33.300781 148.6875 33.09375 145.921875 35.179688 M 159.0625 33.777344 C 159.101562 37.238281 158.964844 40.699219 159.113281 44.160156 C 159.371094 50.382812 169.929688 50.847656 171.195312 44.992188 C 171.652344 41.285156 171.261719 37.515625 171.394531 33.785156 C 170.324219 33.785156 169.261719 33.785156 168.199219 33.777344 C 168.101562 37.304688 168.390625 40.855469 168.050781 44.359375 C 167.597656 47.101562 162.816406 47.050781 162.386719 44.328125 C 162.085938 40.828125 162.347656 37.296875 162.265625 33.785156 C 161.195312 33.785156 160.125 33.777344 159.0625 33.777344 M 193.136719 33.878906 C 190.613281 34.414062 188.804688 36.699219 188.472656 39.207031 C 188.136719 42.046875 188.261719 45.410156 190.539062 47.460938 C 193.910156 50.234375 200.253906 49.546875 201.902344 45.121094 C 202.804688 42.347656 202.84375 39.058594 201.375 36.46875 C 199.691406 33.75 196.027344 33.140625 193.136719 33.878906 M 84.417969 33.777344 C 84.417969 38.820312 84.417969 43.859375 84.417969 48.898438 C 85.488281 48.898438 86.554688 48.898438 87.625 48.898438 C 87.625 43.859375 87.621094 38.820312 87.625 33.785156 C 86.554688 33.785156 85.488281 33.785156 84.417969 33.777344 M 103.484375 33.785156 C 103.484375 38.820312 103.484375 43.859375 103.484375 48.898438 C 106.308594 48.898438 109.140625 48.898438 111.972656 48.898438 C 111.972656 47.984375 111.96875 47.078125 111.96875 46.167969 C 110.207031 46.164062 108.445312 46.164062 106.683594 46.164062 C 106.675781 44.933594 106.675781 43.703125 106.667969 42.476562 C 108.328125 42.464844 109.988281 42.457031 111.648438 42.464844 C 111.640625 41.550781 111.640625 40.640625 111.648438 39.730469 C 109.988281 39.730469 108.328125 39.730469 106.675781 39.730469 C 106.675781 38.660156 106.683594 37.585938 106.6875 36.519531 C 108.445312 36.519531 110.207031 36.511719 111.96875 36.511719 C 111.96875 35.605469 111.972656 34.699219 111.980469 33.785156 C 109.148438 33.777344 106.316406 33.785156 103.484375 33.785156 M 132.316406 33.777344 C 132.316406 38.820312 132.316406 43.859375 132.316406 48.898438 C 135.144531 48.898438 137.976562 48.898438 140.808594 48.898438 C 140.800781 47.984375 140.800781 47.078125 140.800781 46.167969 C 139.039062 46.164062 137.269531 46.164062 135.507812 46.164062 C 135.507812 44.925781 135.515625 43.691406 135.519531 42.457031 C 137.175781 42.464844 138.828125 42.464844 140.480469 42.464844 C 140.472656 41.550781 140.472656 40.640625 140.480469 39.730469 C 138.820312 39.734375 137.160156 39.730469 135.507812 39.730469 C 135.507812 38.660156 135.515625 37.585938 135.519531 36.519531 C 137.285156 36.519531 139.050781 36.519531 140.820312 36.503906 C 140.800781 35.59375 140.78125 34.671875 140.761719 33.75 C 137.941406 33.796875 135.128906 33.777344 132.316406 33.777344 M 175.074219 48.890625 C 176.136719 48.898438 177.207031 48.898438 178.285156 48.898438 C 178.277344 46.96875 178.285156 45.035156 178.285156 43.105469 C 178.679688 43.105469 179.480469 43.105469 179.886719 43.113281 C 181.058594 45.035156 182.238281 46.953125 183.382812 48.898438 C 184.570312 48.898438 185.753906 48.898438 186.945312 48.898438 C 185.503906 46.734375 184.082031 44.574219 182.628906 42.425781 C 185.351562 41.183594 186.3125 37.347656 184.199219 35.128906 C 181.628906 33.09375 178.097656 33.976562 175.082031 33.777344 C 175.066406 38.816406 175.082031 43.851562 175.074219 48.890625 M 116.152344 41.882812 C 116.460938 42.28125 116.460938 42.28125 116.152344 41.882812 Z M 116.152344 41.882812 "/>
<path style=" stroke:none;fill-rule:nonzero;fill:rgb(100%,100%,100%);fill-opacity:1;" d="M 178.289062 36.453125 C 179.796875 36.523438 182.222656 36.414062 182.171875 38.5625 C 182.109375 40.605469 179.75 40.546875 178.285156 40.605469 C 178.277344 39.21875 178.277344 37.835938 178.289062 36.453125 Z M 178.289062 36.453125 "/>
<path style=" stroke:none;fill-rule:nonzero;fill:rgb(100%,100%,100%);fill-opacity:1;" d="M 193.597656 36.777344 C 195.359375 35.816406 198.101562 36.375 198.742188 38.46875 C 199.492188 40.636719 199.484375 43.273438 198.164062 45.230469 C 196.488281 47.132812 192.796875 46.566406 192.035156 44.027344 C 191.355469 41.664062 191.226562 38.21875 193.597656 36.777344 Z M 193.597656 36.777344 "/>
<path style=" stroke:none;fill-rule:nonzero;fill:rgb(100%,100%,100%);fill-opacity:1;" d="M 19.082031 71.949219 C 21.714844 70.847656 24.648438 71.542969 27.191406 72.554688 C 26.828125 73.492188 26.460938 74.433594 26.097656 75.371094 C 24.488281 74.980469 22.847656 74.238281 21.164062 74.574219 C 19.996094 74.800781 19.304688 76.523438 20.382812 77.300781 C 22.207031 78.789062 24.75 79.226562 26.339844 81.046875 C 28.050781 83.195312 27.402344 86.773438 24.957031 88.085938 C 22.21875 89.519531 18.972656 89.023438 16.171875 88.046875 C 16.164062 86.871094 16.160156 85.691406 16.144531 84.515625 C 18.3125 85.371094 20.707031 86.378906 23.046875 85.578125 C 23.589844 84.945312 24.078125 83.917969 23.386719 83.203125 C 21.566406 81.347656 18.445312 81.136719 17.035156 78.796875 C 15.46875 76.53125 16.453125 72.914062 19.082031 71.949219 Z M 19.082031 71.949219 "/>
<path style=" stroke:none;fill-rule:nonzero;fill:rgb(100%,100%,100%);fill-opacity:1;" d="M 31.601562 72.265625 C 34.316406 70.726562 37.609375 71.472656 40.347656 72.5625 C 39.949219 73.527344 39.558594 74.492188 39.15625 75.457031 C 37.496094 74.914062 35.722656 74.097656 33.953125 74.664062 C 33.113281 75.191406 32.683594 76.207031 33.253906 77.117188 C 34.964844 78.558594 37.253906 79.070312 38.957031 80.527344 C 41.179688 82.449219 40.796875 86.503906 38.25 87.988281 C 35.496094 89.558594 32.144531 89.023438 29.28125 88.054688 C 29.289062 86.875 29.289062 85.691406 29.289062 84.515625 C 31.5 85.3125 34.035156 86.574219 36.34375 85.410156 C 37.035156 84.648438 37.023438 83.273438 36.066406 82.734375 C 34.394531 81.574219 32.332031 81.046875 30.820312 79.644531 C 28.757812 77.648438 29.042969 73.707031 31.601562 72.265625 Z M 31.601562 72.265625 "/>
<path style=" stroke:none;fill-rule:nonzero;fill:rgb(100%,100%,100%);fill-opacity:1;" d="M 43.371094 71.722656 C 44.621094 71.710938 45.871094 71.710938 47.121094 71.699219 C 47.125 76.371094 47.121094 81.039062 47.125 85.71875 C 49.425781 85.710938 51.71875 85.710938 54.019531 85.722656 C 54.007812 86.746094 54 87.777344 53.988281 88.804688 C 50.453125 88.773438 46.914062 88.792969 43.382812 88.785156 C 43.378906 83.097656 43.390625 77.410156 43.371094 71.722656 Z M 43.371094 71.722656 "/>
<path style=" stroke:none;fill-rule:nonzero;fill:rgb(100%,100%,100%);fill-opacity:1;" d="M 63.996094 74.59375 C 66.507812 70.902344 71.699219 70.777344 75.476562 72.335938 C 75.265625 72.714844 74.835938 73.480469 74.621094 73.859375 C 72.359375 73.519531 69.921875 72.585938 67.757812 73.847656 C 64.058594 76.078125 63.738281 81.632812 65.929688 85.03125 C 67.957031 87.867188 71.851562 87.230469 74.785156 86.617188 C 74.734375 87.050781 74.625 87.917969 74.574219 88.347656 C 72 89.167969 69.078125 89.296875 66.554688 88.226562 C 61.832031 85.703125 61.355469 78.796875 63.996094 74.59375 Z M 63.996094 74.59375 "/>
<path style=" stroke:none;fill-rule:nonzero;fill:rgb(100%,100%,100%);fill-opacity:1;" d="M 78.464844 71.710938 C 81.640625 71.703125 84.820312 71.691406 88 71.730469 C 87.984375 72.179688 87.953125 73.082031 87.941406 73.53125 C 85.441406 73.539062 82.9375 73.539062 80.4375 73.539062 C 80.445312 75.339844 80.445312 77.140625 80.4375 78.941406 C 82.78125 78.941406 85.128906 78.949219 87.472656 78.941406 C 87.480469 79.554688 87.492188 80.160156 87.5 80.769531 C 85.148438 80.777344 82.796875 80.777344 80.4375 80.769531 C 80.445312 82.847656 80.445312 84.925781 80.445312 87.003906 C 82.949219 87 85.453125 87.003906 87.960938 87 C 87.960938 87.441406 87.972656 88.335938 87.980469 88.78125 C 84.800781 88.785156 81.621094 88.804688 78.445312 88.761719 C 78.476562 83.078125 78.445312 77.390625 78.464844 71.710938 Z M 78.464844 71.710938 "/>
<path style=" stroke:none;fill-rule:nonzero;fill:rgb(100%,100%,100%);fill-opacity:1;" d="M 104.515625 71.671875 C 108.75 71.742188 112.992188 71.699219 117.234375 71.699219 C 117.242188 72.15625 117.253906 73.074219 117.261719 73.53125 C 115.445312 73.53125 113.640625 73.539062 111.828125 73.546875 C 111.859375 78.613281 111.8125 83.683594 111.851562 88.753906 C 111.1875 88.765625 110.511719 88.773438 109.847656 88.785156 C 109.867188 83.703125 109.835938 78.628906 109.867188 73.546875 C 108.046875 73.539062 106.226562 73.53125 104.414062 73.53125 C 104.4375 73.070312 104.492188 72.136719 104.515625 71.671875 Z M 104.515625 71.671875 "/>
<path style=" stroke:none;fill-rule:nonzero;fill:rgb(100%,100%,100%);fill-opacity:1;" d="M 119.855469 71.667969 C 120.324219 71.679688 121.257812 71.699219 121.726562 71.703125 C 121.757812 77.398438 121.734375 83.09375 121.738281 88.785156 C 121.257812 88.785156 120.296875 88.785156 119.816406 88.785156 C 119.835938 83.078125 119.773438 77.375 119.855469 71.667969 Z M 119.855469 71.667969 "/>
<path style=" stroke:none;fill-rule:nonzero;fill:rgb(100%,100%,100%);fill-opacity:1;" d="M 126.519531 71.710938 C 129.691406 71.703125 132.867188 71.699219 136.039062 71.71875 C 136.035156 72.175781 136.015625 73.074219 136.007812 73.53125 C 133.496094 73.539062 130.996094 73.539062 128.492188 73.539062 C 128.5 75.609375 128.5 77.683594 128.484375 79.761719 C 130.851562 79.78125 133.214844 79.773438 135.578125 79.8125 C 135.566406 80.25 135.546875 81.125 135.535156 81.5625 C 133.1875 81.566406 130.84375 81.566406 128.5 81.5625 C 128.492188 83.949219 128.484375 86.328125 128.53125 88.714844 C 127.859375 88.742188 127.183594 88.773438 126.511719 88.804688 C 126.519531 83.105469 126.507812 77.40625 126.519531 71.710938 Z M 126.519531 71.710938 "/>
<path style=" stroke:none;fill-rule:nonzero;fill:rgb(100%,100%,100%);fill-opacity:1;" d="M 146.683594 73.929688 C 149.40625 70.84375 154.117188 70.894531 157.660156 72.359375 C 157.429688 72.746094 156.953125 73.527344 156.722656 73.910156 C 154.480469 73.398438 151.996094 72.625 149.855469 73.898438 C 146.234375 76.132812 145.976562 81.546875 148.027344 84.933594 C 150.027344 87.855469 153.988281 87.25 156.953125 86.625 C 156.894531 87.0625 156.78125 87.9375 156.730469 88.375 C 153.199219 89.457031 148.527344 89.40625 146.207031 86.058594 C 143.933594 82.476562 143.992188 77.28125 146.683594 73.929688 Z M 146.683594 73.929688 "/>
<path style=" stroke:none;fill-rule:nonzero;fill:rgb(100%,100%,100%);fill-opacity:1;" d="M 164.980469 71.472656 C 165.648438 71.628906 166.6875 71.351562 166.898438 72.25 C 169.109375 77.746094 171.179688 83.296875 173.351562 88.804688 C 172.816406 88.792969 171.753906 88.765625 171.214844 88.753906 C 170.542969 86.945312 169.84375 85.144531 169.148438 83.351562 C 166.90625 83.355469 164.660156 83.355469 162.425781 83.296875 C 161.683594 85.121094 160.976562 86.953125 160.285156 88.785156 C 159.773438 88.785156 158.753906 88.785156 158.25 88.785156 C 160.484375 83.015625 162.746094 77.246094 164.980469 71.472656 M 165.789062 73.925781 C 165.039062 76.511719 164.046875 79.015625 163.054688 81.511719 C 164.867188 81.515625 166.6875 81.523438 168.507812 81.542969 C 167.582031 79.007812 166.601562 76.492188 165.789062 73.925781 Z M 165.789062 73.925781 "/>
<path style=" stroke:none;fill-rule:nonzero;fill:rgb(100%,100%,100%);fill-opacity:1;" d="M 197.019531 71.859375 C 200.273438 70.8125 204.488281 71.402344 206.4375 74.511719 C 208.398438 77.714844 208.441406 82.011719 206.765625 85.339844 C 204.066406 90.464844 195.257812 90.1875 193.058594 84.746094 C 191.265625 80.359375 192 73.707031 197.019531 71.859375 M 197.59375 73.636719 C 194.007812 75.359375 193.855469 80.230469 194.851562 83.574219 C 195.828125 87.230469 200.761719 88.203125 203.578125 86.117188 C 205.308594 84.796875 205.726562 82.46875 205.824219 80.417969 C 205.824219 78.324219 205.476562 75.988281 203.894531 74.476562 C 202.191406 73.015625 199.625 72.84375 197.59375 73.636719 Z M 197.59375 73.636719 "/>
<path style=" stroke:none;fill-rule:nonzero;fill:rgb(100%,100%,100%);fill-opacity:1;" d="M 91.765625 88.78125 C 91.796875 83.078125 91.707031 77.378906 91.816406 71.679688 C 94.617188 71.820312 97.570312 71.304688 100.242188 72.40625 C 102.441406 73.382812 102.984375 76.1875 102.253906 78.292969 C 101.730469 79.683594 100.359375 80.398438 99.210938 81.183594 C 100.710938 83.722656 102.230469 86.25 103.742188 88.792969 C 102.933594 88.78125 102.132812 88.773438 101.324219 88.761719 C 99.984375 86.378906 98.601562 84.011719 97.300781 81.605469 C 96.117188 81.582031 94.925781 81.566406 93.746094 81.546875 C 93.734375 83.960938 93.734375 86.375 93.734375 88.785156 C 93.246094 88.785156 92.257812 88.78125 91.765625 88.78125 M 93.734375 73.511719 C 93.734375 75.65625 93.734375 77.796875 93.746094 79.933594 C 95.480469 79.882812 97.328125 80.144531 98.972656 79.445312 C 100.671875 78.613281 100.804688 76.15625 99.933594 74.691406 C 98.320312 73.0625 95.789062 73.660156 93.734375 73.511719 Z M 93.734375 73.511719 "/>
<path style=" stroke:none;fill-rule:nonzero;fill:rgb(100%,100%,100%);fill-opacity:1;" d="M 138.851562 71.671875 C 139.351562 71.699219 140.359375 71.75 140.859375 71.777344 C 140.769531 77.445312 140.839844 83.113281 140.820312 88.78125 C 140.328125 88.78125 139.339844 88.785156 138.851562 88.785156 C 138.847656 83.078125 138.847656 77.378906 138.851562 71.671875 Z M 138.851562 71.671875 "/>
<path style=" stroke:none;fill-rule:nonzero;fill:rgb(100%,100%,100%);fill-opacity:1;" d="M 175.695312 71.722656 C 179.53125 71.8125 184.121094 70.9375 187.144531 73.9375 C 190.34375 77.464844 190.167969 83.839844 186.550781 87 C 183.480469 89.449219 179.328125 88.671875 175.703125 88.78125 C 175.703125 83.09375 175.714844 77.40625 175.695312 71.722656 M 177.667969 73.527344 C 177.707031 78.035156 177.597656 82.550781 177.734375 87.0625 C 180.621094 87.035156 184.183594 87.191406 186.0625 84.515625 C 187.691406 81.820312 187.746094 77.925781 185.722656 75.417969 C 183.710938 73.125 180.390625 73.558594 177.667969 73.527344 Z M 177.667969 73.527344 "/>
<path style=" stroke:none;fill-rule:nonzero;fill:rgb(30.588235%,58.039216%,63.529412%);fill-opacity:1;" d="M 28.238281 16.117188 C 30.359375 10.835938 35.808594 7.277344 41.449219 7.179688 C 41.46875 8.234375 41.480469 9.296875 41.507812 10.359375 C 45.324219 10.453125 49.082031 12.300781 51.207031 15.539062 C 53.539062 18.8125 53.296875 23.019531 53.25 26.84375 C 52.167969 26.847656 51.09375 26.855469 50.015625 26.859375 C 49.964844 23.285156 50.667969 19.078125 47.886719 16.277344 C 44.683594 12.449219 38.21875 12.808594 35.246094 16.726562 C 32.863281 19.550781 33.515625 23.457031 33.542969 26.859375 C 31.402344 26.828125 29.261719 26.847656 27.121094 26.847656 C 27.179688 23.257812 26.671875 19.476562 28.238281 16.117188 Z M 28.238281 16.117188 "/>
<path style=" stroke:none;fill-rule:nonzero;fill:rgb(30.588235%,58.039216%,63.529412%);fill-opacity:1;" d="M 116.152344 41.882812 C 116.460938 42.28125 116.460938 42.28125 116.152344 41.882812 Z M 116.152344 41.882812 "/>
<path style=" stroke:none;fill-rule:nonzero;fill:rgb(73.72549%,54.117647%,0%);fill-opacity:1;" d="M 20.722656 28.972656 C 21.457031 26.148438 24.957031 26.996094 27.121094 26.847656 C 29.261719 26.847656 31.402344 26.828125 33.542969 26.859375 C 29.453125 31.054688 24.769531 34.609375 20.636719 38.757812 C 20.714844 35.496094 20.503906 32.226562 20.722656 28.972656 Z M 20.722656 28.972656 "/>
<path style=" stroke:none;fill-rule:nonzero;fill:rgb(95.294118%,70.980392%,0%);fill-opacity:1;" d="M 33.542969 26.859375 C 39.035156 26.855469 44.523438 26.855469 50.015625 26.859375 C 51.09375 26.855469 52.167969 26.847656 53.25 26.84375 C 55.757812 26.886719 58.300781 26.640625 60.785156 27.097656 C 62.015625 27.644531 62.445312 28.992188 62.316406 30.257812 C 62.285156 38.183594 62.351562 46.117188 62.292969 54.042969 C 62.421875 55.761719 60.453125 56.605469 59 56.507812 C 47.460938 56.5 35.914062 56.496094 24.375 56.515625 C 23.289062 56.546875 22.257812 56.207031 21.246094 55.878906 C 20.8125 54.675781 20.527344 53.40625 20.597656 52.121094 C 20.636719 47.667969 20.59375 43.210938 20.636719 38.757812 C 24.769531 34.609375 29.453125 31.054688 33.542969 26.859375 M 36.957031 36.421875 C 34.996094 39.335938 36.476562 43.460938 39.675781 44.726562 C 39.695312 46.296875 39.699219 47.859375 39.695312 49.429688 C 40.929688 49.417969 42.167969 49.410156 43.402344 49.40625 C 43.410156 47.816406 43.421875 46.234375 43.453125 44.652344 C 46.152344 43.410156 47.714844 40.179688 46.503906 37.34375 C 45.183594 33.386719 39.046875 32.863281 36.957031 36.421875 Z M 36.957031 36.421875 "/>
<path style=" stroke:none;fill-rule:nonzero;fill:rgb(0%,0%,0%);fill-opacity:1;" d="M 73.914062 34.414062 C 76.273438 32.949219 79.195312 33.71875 81.597656 34.652344 C 81.265625 35.488281 80.9375 36.332031 80.609375 37.175781 C 78.878906 36.679688 76.132812 35.339844 75.132812 37.632812 C 75.566406 39.882812 78.414062 39.984375 79.914062 41.292969 C 82.335938 42.714844 82.226562 46.652344 79.898438 48.113281 C 77.496094 49.597656 74.445312 49.167969 71.929688 48.214844 C 71.921875 47.191406 71.910156 46.167969 71.902344 45.144531 C 73.695312 45.769531 75.601562 46.695312 77.535156 46.175781 C 78.574219 45.867188 78.816406 44.746094 78.265625 43.878906 C 76.765625 42.644531 74.8125 42.15625 73.324219 40.90625 C 71.429688 39.207031 71.710938 35.714844 73.914062 34.414062 Z M 73.914062 34.414062 "/>
<path style=" stroke:none;fill-rule:nonzero;fill:rgb(0%,0%,0%);fill-opacity:1;" d="M 89.855469 33.777344 C 93.597656 33.785156 97.339844 33.785156 101.082031 33.777344 C 101.074219 34.691406 101.074219 35.597656 101.074219 36.511719 C 99.742188 36.519531 98.410156 36.511719 97.078125 36.523438 C 97.058594 40.648438 97.070312 44.773438 97.066406 48.898438 C 96 48.898438 94.9375 48.898438 93.875 48.898438 C 93.867188 44.773438 93.875 40.648438 93.867188 36.523438 C 92.527344 36.511719 91.195312 36.519531 89.863281 36.511719 C 89.863281 35.597656 89.855469 34.691406 89.855469 33.777344 Z M 89.855469 33.777344 "/>
<path style=" stroke:none;fill-rule:nonzero;fill:rgb(0%,0%,0%);fill-opacity:1;" d="M 121.976562 34.296875 C 124.351562 32.980469 127.160156 33.765625 129.53125 34.664062 C 129.171875 35.496094 128.804688 36.324219 128.453125 37.15625 C 126.621094 36.511719 124.386719 35.695312 122.835938 37.375 C 123.417969 39.773438 126.199219 39.992188 127.878906 41.324219 C 130.375 42.847656 130.050781 47.082031 127.441406 48.3125 C 125.066406 49.558594 122.234375 49.097656 119.808594 48.226562 C 119.808594 47.199219 119.816406 46.167969 119.816406 45.140625 C 121.605469 45.75 123.570312 46.773438 125.488281 46.128906 C 126.53125 45.867188 126.597656 44.695312 126.160156 43.886719 C 124.507812 42.417969 122.027344 42.089844 120.675781 40.261719 C 119.34375 38.382812 119.898438 35.390625 121.976562 34.296875 Z M 121.976562 34.296875 "/>
<path style=" stroke:none;fill-rule:nonzero;fill:rgb(0%,0%,0%);fill-opacity:1;" d="M 145.921875 35.179688 C 148.6875 33.09375 152.496094 33.300781 155.589844 34.503906 C 155.25 35.359375 154.910156 36.222656 154.578125 37.078125 C 152.75 36.523438 150.640625 35.816406 148.847656 36.886719 C 146.171875 38.472656 145.953125 42.449219 147.472656 44.914062 C 148.578125 46.574219 150.714844 46.355469 152.441406 46.246094 C 152.46875 45.199219 152.488281 44.15625 152.511719 43.113281 C 151.539062 43.105469 150.570312 43.101562 149.605469 43.101562 C 149.609375 42.1875 149.609375 41.28125 149.617188 40.371094 C 151.589844 40.371094 153.5625 40.371094 155.539062 40.371094 C 155.542969 43.003906 155.539062 45.640625 155.542969 48.273438 C 151.855469 49.308594 146.671875 49.984375 144.375 46.085938 C 142.703125 42.683594 142.734375 37.707031 145.921875 35.179688 Z M 145.921875 35.179688 "/>
<path style=" stroke:none;fill-rule:nonzero;fill:rgb(0%,0%,0%);fill-opacity:1;" d="M 159.0625 33.777344 C 160.125 33.777344 161.195312 33.785156 162.265625 33.785156 C 162.347656 37.296875 162.085938 40.828125 162.386719 44.328125 C 162.816406 47.050781 167.597656 47.101562 168.050781 44.359375 C 168.390625 40.855469 168.101562 37.304688 168.199219 33.777344 C 169.261719 33.785156 170.324219 33.785156 171.394531 33.785156 C 171.261719 37.515625 171.652344 41.285156 171.195312 44.992188 C 169.929688 50.847656 159.371094 50.382812 159.113281 44.160156 C 158.964844 40.699219 159.101562 37.238281 159.0625 33.777344 Z M 159.0625 33.777344 "/>
<path style=" stroke:none;fill-rule:nonzero;fill:rgb(0%,0%,0%);fill-opacity:1;" d="M 193.136719 33.878906 C 196.027344 33.140625 199.691406 33.75 201.375 36.46875 C 202.84375 39.058594 202.804688 42.347656 201.902344 45.121094 C 200.253906 49.546875 193.910156 50.234375 190.539062 47.460938 C 188.261719 45.410156 188.136719 42.046875 188.472656 39.207031 C 188.804688 36.699219 190.613281 34.414062 193.136719 33.878906 M 193.597656 36.777344 C 191.226562 38.21875 191.355469 41.664062 192.035156 44.027344 C 192.796875 46.566406 196.488281 47.132812 198.164062 45.230469 C 199.484375 43.273438 199.492188 40.636719 198.742188 38.46875 C 198.101562 36.375 195.359375 35.816406 193.597656 36.777344 Z M 193.597656 36.777344 "/>
<path style=" stroke:none;fill-rule:nonzero;fill:rgb(0%,0%,0%);fill-opacity:1;" d="M 84.417969 33.777344 C 85.488281 33.785156 86.554688 33.785156 87.625 33.785156 C 87.621094 38.820312 87.625 43.859375 87.625 48.898438 C 86.554688 48.898438 85.488281 48.898438 84.417969 48.898438 C 84.417969 43.859375 84.417969 38.820312 84.417969 33.777344 Z M 84.417969 33.777344 "/>
<path style=" stroke:none;fill-rule:nonzero;fill:rgb(0%,0%,0%);fill-opacity:1;" d="M 103.484375 33.785156 C 106.316406 33.785156 109.148438 33.777344 111.980469 33.785156 C 111.972656 34.699219 111.96875 35.605469 111.96875 36.511719 C 110.207031 36.511719 108.445312 36.519531 106.6875 36.519531 C 106.683594 37.585938 106.675781 38.660156 106.675781 39.730469 C 108.328125 39.730469 109.988281 39.730469 111.648438 39.730469 C 111.640625 40.640625 111.640625 41.550781 111.648438 42.464844 C 109.988281 42.457031 108.328125 42.464844 106.667969 42.476562 C 106.675781 43.703125 106.675781 44.933594 106.683594 46.164062 C 108.445312 46.164062 110.207031 46.164062 111.96875 46.167969 C 111.96875 47.078125 111.972656 47.984375 111.972656 48.898438 C 109.140625 48.898438 106.308594 48.898438 103.484375 48.898438 C 103.484375 43.859375 103.484375 38.820312 103.484375 33.785156 Z M 103.484375 33.785156 "/>
<path style=" stroke:none;fill-rule:nonzero;fill:rgb(0%,0%,0%);fill-opacity:1;" d="M 132.316406 33.777344 C 135.128906 33.777344 137.941406 33.796875 140.761719 33.75 C 140.78125 34.671875 140.800781 35.59375 140.820312 36.503906 C 139.050781 36.519531 137.285156 36.519531 135.519531 36.519531 C 135.515625 37.585938 135.507812 38.660156 135.507812 39.730469 C 137.160156 39.730469 138.820312 39.734375 140.480469 39.730469 C 140.472656 40.640625 140.472656 41.550781 140.480469 42.464844 C 138.828125 42.464844 137.175781 42.464844 135.519531 42.457031 C 135.515625 43.691406 135.507812 44.925781 135.507812 46.164062 C 137.269531 46.164062 139.039062 46.164062 140.800781 46.167969 C 140.800781 47.078125 140.800781 47.984375 140.808594 48.898438 C 137.976562 48.898438 135.144531 48.898438 132.316406 48.898438 C 132.316406 43.859375 132.316406 38.820312 132.316406 33.777344 Z M 132.316406 33.777344 "/>
<path style=" stroke:none;fill-rule:nonzero;fill:rgb(0%,0%,0%);fill-opacity:1;" d="M 175.074219 48.890625 C 175.082031 43.851562 175.066406 38.816406 175.082031 33.777344 C 178.097656 33.976562 181.628906 33.09375 184.199219 35.128906 C 186.3125 37.347656 185.351562 41.183594 182.628906 42.425781 C 184.082031 44.574219 185.503906 46.734375 186.945312 48.898438 C 185.753906 48.898438 184.570312 48.898438 183.382812 48.898438 C 182.238281 46.953125 181.058594 45.035156 179.886719 43.113281 C 179.480469 43.105469 178.679688 43.105469 178.285156 43.105469 C 178.285156 45.035156 178.277344 46.96875 178.285156 48.898438 C 177.207031 48.898438 176.136719 48.898438 175.074219 48.890625 M 178.289062 36.453125 C 178.277344 37.835938 178.277344 39.21875 178.285156 40.605469 C 179.75 40.546875 182.109375 40.605469 182.171875 38.5625 C 182.222656 36.414062 179.796875 36.523438 178.289062 36.453125 Z M 178.289062 36.453125 "/>
<path style=" stroke:none;fill-rule:nonzero;fill:rgb(20%,19.215686%,20.784314%);fill-opacity:1;" d="M 36.957031 36.421875 C 39.046875 32.863281 45.183594 33.386719 46.503906 37.34375 C 47.714844 40.179688 46.152344 43.410156 43.453125 44.652344 C 43.421875 46.234375 43.410156 47.816406 43.402344 49.40625 C 42.167969 49.410156 40.929688 49.417969 39.695312 49.429688 C 39.699219 47.859375 39.695312 46.296875 39.675781 44.726562 C 36.476562 43.460938 34.996094 39.335938 36.957031 36.421875 Z M 36.957031 36.421875 "/>
<path style=" stroke:none;fill-rule:nonzero;fill:rgb(42.745098%,73.333333%,0%);fill-opacity:1;" d="M 15.53125 63.289062 C 79.566406 63.167969 143.601562 63.28125 207.636719 63.230469 C 211.253906 63.097656 214.851562 65.007812 216.675781 68.171875 C 218.945312 71.847656 217.90625 76.355469 218.136719 80.441406 C 217.964844 84.097656 218.675781 87.917969 217.363281 91.425781 C 215.921875 95.078125 212.164062 97.742188 208.21875 97.609375 C 144.140625 97.601562 80.054688 97.601562 15.972656 97.609375 C 11.925781 97.640625 8.136719 94.746094 6.875 90.917969 C 5.824219 87.527344 6.40625 83.917969 6.265625 80.421875 C 6.40625 76.9375 5.816406 73.320312 6.90625 69.941406 C 8.148438 66.269531 11.6875 63.566406 15.53125 63.289062 M 19.082031 71.949219 C 16.453125 72.914062 15.46875 76.53125 17.035156 78.796875 C 18.445312 81.136719 21.566406 81.347656 23.386719 83.203125 C 24.078125 83.917969 23.589844 84.945312 23.046875 85.578125 C 20.707031 86.378906 18.3125 85.371094 16.144531 84.515625 C 16.160156 85.691406 16.164062 86.871094 16.171875 88.046875 C 18.972656 89.023438 22.21875 89.519531 24.957031 88.085938 C 27.402344 86.773438 28.050781 83.195312 26.339844 81.046875 C 24.75 79.226562 22.207031 78.789062 20.382812 77.300781 C 19.304688 76.523438 19.996094 74.800781 21.164062 74.574219 C 22.847656 74.238281 24.488281 74.980469 26.097656 75.371094 C 26.460938 74.433594 26.828125 73.492188 27.191406 72.554688 C 24.648438 71.542969 21.714844 70.847656 19.082031 71.949219 M 31.601562 72.265625 C 29.042969 73.707031 28.757812 77.648438 30.820312 79.644531 C 32.332031 81.046875 34.394531 81.574219 36.066406 82.734375 C 37.023438 83.273438 37.035156 84.648438 36.34375 85.410156 C 34.035156 86.574219 31.5 85.3125 29.289062 84.515625 C 29.289062 85.691406 29.289062 86.875 29.28125 88.054688 C 32.144531 89.023438 35.496094 89.558594 38.25 87.988281 C 40.796875 86.503906 41.179688 82.449219 38.957031 80.527344 C 37.253906 79.070312 34.964844 78.558594 33.253906 77.117188 C 32.683594 76.207031 33.113281 75.191406 33.953125 74.664062 C 35.722656 74.097656 37.496094 74.914062 39.15625 75.457031 C 39.558594 74.492188 39.949219 73.527344 40.347656 72.5625 C 37.609375 71.472656 34.316406 70.726562 31.601562 72.265625 M 43.371094 71.722656 C 43.390625 77.410156 43.378906 83.097656 43.382812 88.785156 C 46.914062 88.792969 50.453125 88.773438 53.988281 88.804688 C 54 87.777344 54.007812 86.746094 54.019531 85.722656 C 51.71875 85.710938 49.425781 85.710938 47.125 85.71875 C 47.121094 81.039062 47.125 76.371094 47.121094 71.699219 C 45.871094 71.710938 44.621094 71.710938 43.371094 71.722656 M 63.996094 74.59375 C 61.355469 78.796875 61.832031 85.703125 66.554688 88.226562 C 69.078125 89.296875 72 89.167969 74.574219 88.347656 C 74.625 87.917969 74.734375 87.050781 74.785156 86.617188 C 71.851562 87.230469 67.957031 87.867188 65.929688 85.03125 C 63.738281 81.632812 64.058594 76.078125 67.757812 73.847656 C 69.921875 72.585938 72.359375 73.519531 74.621094 73.859375 C 74.835938 73.480469 75.265625 72.714844 75.476562 72.335938 C 71.699219 70.777344 66.507812 70.902344 63.996094 74.59375 M 78.464844 71.710938 C 78.445312 77.390625 78.476562 83.078125 78.445312 88.761719 C 81.621094 88.804688 84.800781 88.785156 87.980469 88.78125 C 87.972656 88.335938 87.960938 87.441406 87.960938 87 C 85.453125 87.003906 82.949219 87 80.445312 87.003906 C 80.445312 84.925781 80.445312 82.847656 80.4375 80.769531 C 82.796875 80.777344 85.148438 80.777344 87.5 80.769531 C 87.492188 80.160156 87.480469 79.554688 87.472656 78.941406 C 85.128906 78.949219 82.78125 78.941406 80.4375 78.941406 C 80.445312 77.140625 80.445312 75.339844 80.4375 73.539062 C 82.9375 73.539062 85.441406 73.539062 87.941406 73.53125 C 87.953125 73.082031 87.984375 72.179688 88 71.730469 C 84.820312 71.691406 81.640625 71.703125 78.464844 71.710938 M 104.515625 71.671875 C 104.492188 72.136719 104.4375 73.070312 104.414062 73.53125 C 106.226562 73.53125 108.046875 73.539062 109.867188 73.546875 C 109.835938 78.628906 109.867188 83.703125 109.847656 88.785156 C 110.511719 88.773438 111.1875 88.765625 111.851562 88.753906 C 111.8125 83.683594 111.859375 78.613281 111.828125 73.546875 C 113.640625 73.539062 115.445312 73.53125 117.261719 73.53125 C 117.253906 73.074219 117.242188 72.15625 117.234375 71.699219 C 112.992188 71.699219 108.75 71.742188 104.515625 71.671875 M 119.855469 71.667969 C 119.773438 77.375 119.835938 83.078125 119.816406 88.785156 C 120.296875 88.785156 121.257812 88.785156 121.738281 88.785156 C 121.734375 83.09375 121.757812 77.398438 121.726562 71.703125 C 121.257812 71.699219 120.324219 71.679688 119.855469 71.667969 M 126.519531 71.710938 C 126.507812 77.40625 126.519531 83.105469 126.511719 88.804688 C 127.183594 88.773438 127.859375 88.742188 128.53125 88.714844 C 128.484375 86.328125 128.492188 83.949219 128.5 81.5625 C 130.84375 81.566406 133.1875 81.566406 135.535156 81.5625 C 135.546875 81.125 135.566406 80.25 135.578125 79.8125 C 133.214844 79.773438 130.851562 79.78125 128.484375 79.761719 C 128.5 77.683594 128.5 75.609375 128.492188 73.539062 C 130.996094 73.539062 133.496094 73.539062 136.007812 73.53125 C 136.015625 73.074219 136.035156 72.175781 136.039062 71.71875 C 132.867188 71.699219 129.691406 71.703125 126.519531 71.710938 M 146.683594 73.929688 C 143.992188 77.28125 143.933594 82.476562 146.207031 86.058594 C 148.527344 89.40625 153.199219 89.457031 156.730469 88.375 C 156.78125 87.9375 156.894531 87.0625 156.953125 86.625 C 153.988281 87.25 150.027344 87.855469 148.027344 84.933594 C 145.976562 81.546875 146.234375 76.132812 149.855469 73.898438 C 151.996094 72.625 154.480469 73.398438 156.722656 73.910156 C 156.953125 73.527344 157.429688 72.746094 157.660156 72.359375 C 154.117188 70.894531 149.40625 70.84375 146.683594 73.929688 M 164.980469 71.472656 C 162.746094 77.246094 160.484375 83.015625 158.25 88.785156 C 158.753906 88.785156 159.773438 88.785156 160.285156 88.785156 C 160.976562 86.953125 161.683594 85.121094 162.425781 83.296875 C 164.660156 83.355469 166.90625 83.355469 169.148438 83.351562 C 169.84375 85.144531 170.542969 86.945312 171.214844 88.753906 C 171.753906 88.765625 172.816406 88.792969 173.351562 88.804688 C 171.179688 83.296875 169.109375 77.746094 166.898438 72.25 C 166.6875 71.351562 165.648438 71.628906 164.980469 71.472656 M 197.019531 71.859375 C 192 73.707031 191.265625 80.359375 193.058594 84.746094 C 195.257812 90.1875 204.066406 90.464844 206.765625 85.339844 C 208.441406 82.011719 208.398438 77.714844 206.4375 74.511719 C 204.488281 71.402344 200.273438 70.8125 197.019531 71.859375 M 91.765625 88.78125 C 92.257812 88.78125 93.246094 88.785156 93.734375 88.785156 C 93.734375 86.375 93.734375 83.960938 93.746094 81.546875 C 94.925781 81.566406 96.117188 81.582031 97.300781 81.605469 C 98.601562 84.011719 99.984375 86.378906 101.324219 88.761719 C 102.132812 88.773438 102.933594 88.78125 103.742188 88.792969 C 102.230469 86.25 100.710938 83.722656 99.210938 81.183594 C 100.359375 80.398438 101.730469 79.683594 102.253906 78.292969 C 102.984375 76.1875 102.441406 73.382812 100.242188 72.40625 C 97.570312 71.304688 94.617188 71.820312 91.816406 71.679688 C 91.707031 77.378906 91.796875 83.078125 91.765625 88.78125 M 138.851562 71.671875 C 138.847656 77.378906 138.847656 83.078125 138.851562 88.785156 C 139.339844 88.785156 140.328125 88.78125 140.820312 88.78125 C 140.839844 83.113281 140.769531 77.445312 140.859375 71.777344 C 140.359375 71.75 139.351562 71.699219 138.851562 71.671875 M 175.695312 71.722656 C 175.714844 77.40625 175.703125 83.09375 175.703125 88.78125 C 179.328125 88.671875 183.480469 89.449219 186.550781 87 C 190.167969 83.839844 190.34375 77.464844 187.144531 73.9375 C 184.121094 70.9375 179.53125 71.8125 175.695312 71.722656 Z M 175.695312 71.722656 "/>
<path style=" stroke:none;fill-rule:nonzero;fill:rgb(42.745098%,73.333333%,0%);fill-opacity:1;" d="M 93.734375 73.511719 C 95.789062 73.660156 98.320312 73.0625 99.933594 74.691406 C 100.804688 76.15625 100.671875 78.613281 98.972656 79.445312 C 97.328125 80.144531 95.480469 79.882812 93.746094 79.933594 C 93.734375 77.796875 93.734375 75.65625 93.734375 73.511719 Z M 93.734375 73.511719 "/>
<path style=" stroke:none;fill-rule:nonzero;fill:rgb(42.745098%,73.333333%,0%);fill-opacity:1;" d="M 177.667969 73.527344 C 180.390625 73.558594 183.710938 73.125 185.722656 75.417969 C 187.746094 77.925781 187.691406 81.820312 186.0625 84.515625 C 184.183594 87.191406 180.621094 87.035156 177.734375 87.0625 C 177.597656 82.550781 177.707031 78.035156 177.667969 73.527344 Z M 177.667969 73.527344 "/>
<path style=" stroke:none;fill-rule:nonzero;fill:rgb(42.745098%,73.333333%,0%);fill-opacity:1;" d="M 197.59375 73.636719 C 199.625 72.84375 202.191406 73.015625 203.894531 74.476562 C 205.476562 75.988281 205.824219 78.324219 205.824219 80.417969 C 205.726562 82.46875 205.308594 84.796875 203.578125 86.117188 C 200.761719 88.203125 195.828125 87.230469 194.851562 83.574219 C 193.855469 80.230469 194.007812 75.359375 197.59375 73.636719 Z M 197.59375 73.636719 "/>
<path style=" stroke:none;fill-rule:nonzero;fill:rgb(42.745098%,73.333333%,0%);fill-opacity:1;" d="M 165.789062 73.925781 C 166.601562 76.492188 167.582031 79.007812 168.507812 81.542969 C 166.6875 81.523438 164.867188 81.515625 163.054688 81.511719 C 164.046875 79.015625 165.039062 76.511719 165.789062 73.925781 Z M 165.789062 73.925781 "/>
</g>
</svg>
